<svg width="180" height="52" fill="none" xmlns="http://www.w3.org/2000/svg"><path d="M179 46.003c0 2.771-2.291 5.016-5.126 5.016H6.132C3.3 51.019 1 48.774 1 46.003v-40C1 3.234 3.3.982 6.132.982h167.741c2.836 0 5.126 2.253 5.126 5.022l.001 40z" fill="#000"/><path d="M173.333 1.042c3.087 0 5.599 2.449 5.599 5.458v39c0 3.01-2.512 5.458-5.599 5.458H6.667c-3.087 0-5.599-2.448-5.599-5.458v-39c0-3.01 2.512-5.458 5.599-5.458h166.666zm0-1.042H6.667C3.002 0 0 2.927 0 6.5v39C0 49.073 3.002 52 6.667 52h166.666c3.665 0 6.667-2.927 6.667-6.5v-39c0-3.573-3.002-6.5-6.667-6.5z" fill="#A6A6A6"/><path d="M40.17 25.72c-.04-4.19 3.518-6.23 3.68-6.324-2.014-2.864-5.136-3.255-6.234-3.286-2.623-.27-5.166 1.53-6.503 1.53-1.362 0-3.42-1.504-5.637-1.46-2.853.043-5.523 1.653-6.986 4.155-3.022 5.1-.768 12.594 2.126 16.716 1.448 2.02 3.14 4.273 5.355 4.194 2.166-.087 2.976-1.347 5.59-1.347 2.591 0 3.351 1.347 5.61 1.296 2.325-.036 3.79-2.028 5.187-4.065 1.673-2.314 2.345-4.593 2.372-4.71-.055-.018-4.516-1.678-4.56-6.7zm-4.267-12.322c1.165-1.421 1.962-3.354 1.741-5.316-1.686.073-3.796 1.138-5.01 2.527-1.075 1.225-2.035 3.232-1.787 5.12 1.895.138 3.84-.932 5.056-2.331zm35.624 27.557h-3.028l-1.659-5.081h-5.765l-1.58 5.081h-2.948l5.712-17.3h3.528l5.74 17.3zm-5.187-7.213l-1.5-4.518c-.159-.462-.456-1.548-.895-3.26h-.053a123.23 123.23 0 01-.843 3.26l-1.473 4.518h4.764zm19.876.823c0 2.121-.588 3.798-1.764 5.03-1.053 1.095-2.361 1.642-3.923 1.642-1.685 0-2.896-.59-3.633-1.77h-.053v6.571H74v-13.45c0-1.335-.036-2.704-.106-4.108h2.5l.16 1.978h.052c.949-1.49 2.387-2.234 4.318-2.234 1.51 0 2.77.581 3.777 1.745 1.01 1.165 1.515 2.696 1.515 4.596zm-2.896.1c0-1.213-.28-2.214-.843-3.002-.615-.822-1.44-1.233-2.475-1.233-.7 0-1.338.23-1.907.68a3.142 3.142 0 00-1.12 1.785 3.544 3.544 0 00-.131.845v2.08c0 .908.285 1.673.856 2.299.57.625 1.312.937 2.224.937 1.07 0 1.904-.403 2.5-1.206.597-.805.896-1.866.896-3.184zm17.613-.1c0 2.121-.588 3.798-1.765 5.03-1.052 1.095-2.36 1.642-3.921 1.642-1.686 0-2.896-.59-3.632-1.77h-.054v6.571H88.72v-13.45c0-1.335-.036-2.704-.106-4.108h2.5l.159 1.978h.053c.947-1.49 2.386-2.234 4.318-2.234 1.508 0 2.768.581 3.778 1.745 1.007 1.165 1.512 2.696 1.512 4.596zm-2.896.1c0-1.213-.281-2.214-.844-3.002-.614-.822-1.437-1.233-2.473-1.233-.703 0-1.339.23-1.91.68a3.14 3.14 0 00-1.117 1.785c-.086.343-.132.624-.132.845v2.08c0 .908.286 1.673.854 2.299.57.624 1.312.937 2.226.937 1.071 0 1.904-.403 2.5-1.206.598-.805.896-1.866.896-3.184zm19.35 1.439c0 1.471-.524 2.669-1.576 3.593-1.156 1.01-2.765 1.514-4.833 1.514-1.91 0-3.44-.358-4.599-1.077l.659-2.31a7.95 7.95 0 004.109 1.105c1.071 0 1.904-.237 2.503-.708.596-.47.893-1.102.893-1.89 0-.702-.245-1.293-.737-1.773-.49-.48-1.307-.926-2.448-1.338-3.107-1.13-4.659-2.784-4.659-4.96 0-1.423.544-2.589 1.633-3.496 1.086-.909 2.534-1.363 4.344-1.363 1.615 0 2.956.275 4.027.822l-.711 2.26c-1-.531-2.13-.796-3.396-.796-1 0-1.781.24-2.341.719-.473.427-.711.949-.711 1.566 0 .684.271 1.25.815 1.694.473.41 1.333.855 2.581 1.335 1.527.6 2.648 1.3 3.37 2.104.718.8 1.077 1.803 1.077 2.999zm9.397-5.544h-3.133v6.057c0 1.54.552 2.31 1.659 2.31.508 0 .929-.043 1.262-.129l.079 2.105c-.56.204-1.297.307-2.211.307-1.122 0-2-.334-2.633-1-.631-.67-.948-1.79-.948-3.364v-6.288h-1.867v-2.08h1.867v-2.284l2.792-.822v3.106h3.133v2.082zm14.139 4.055c0 1.918-.563 3.492-1.686 4.723-1.177 1.267-2.74 1.9-4.688 1.9-1.877 0-3.372-.608-4.486-1.822-1.115-1.214-1.672-2.747-1.672-4.594 0-1.933.573-3.517 1.724-4.748 1.148-1.232 2.697-1.848 4.645-1.848 1.877 0 3.388.607 4.528 1.822 1.091 1.18 1.635 2.702 1.635 4.567zm-2.95.09c0-1.15-.252-2.137-.762-2.96-.596-.996-1.448-1.493-2.552-1.493-1.143 0-2.011.498-2.607 1.493-.511.824-.763 1.826-.763 3.012 0 1.15.252 2.137.763 2.959.615.995 1.473 1.492 2.581 1.492 1.086 0 1.938-.507 2.552-1.518.524-.839.788-1.836.788-2.985zm12.189-3.787a5.07 5.07 0 00-.896-.077c-1 0-1.774.368-2.318 1.105-.473.65-.71 1.472-.71 2.464v6.545h-2.842l.027-8.546c0-1.438-.036-2.747-.107-3.927h2.476l.104 2.387h.079c.3-.82.773-1.481 1.421-1.976.634-.446 1.318-.669 2.055-.669.263 0 .5.019.711.051v2.643zm12.713 3.21c0 .496-.034.915-.104 1.257h-8.528c.033 1.232.445 2.175 1.237 2.825.719.58 1.648.872 2.789.872 1.263 0 2.415-.196 3.451-.59l.445 1.924c-1.21.515-2.64.77-4.289.77-1.984 0-3.541-.569-4.675-1.706-1.13-1.138-1.697-2.665-1.697-4.581 0-1.882.527-3.448 1.581-4.697 1.104-1.334 2.596-2.001 4.474-2.001 1.844 0 3.24.667 4.188 2 .75 1.06 1.128 2.37 1.128 3.927zm-2.711-.72c.019-.82-.167-1.53-.552-2.13-.492-.77-1.248-1.156-2.265-1.156-.93 0-1.686.376-2.263 1.13-.473.6-.755 1.318-.841 2.155h5.921v.002zM65.4 13.012c0 1.53-.47 2.681-1.411 3.455-.87.714-2.108 1.071-3.71 1.071a17.64 17.64 0 01-2.045-.101v-8.36a15.46 15.46 0 012.407-.177c1.527 0 2.677.323 3.453.97.87.733 1.306 1.78 1.306 3.142zm-1.474.037c0-.992-.269-1.752-.808-2.282-.538-.53-1.325-.795-2.361-.795-.44 0-.815.029-1.125.089v6.355c.172.026.486.038.944.038 1.069 0 1.894-.29 2.476-.87.581-.58.874-1.425.874-2.535zm9.284 1.299c0 .942-.275 1.715-.827 2.32-.579.623-1.346.934-2.303.934-.923 0-1.657-.298-2.205-.896-.547-.596-.82-1.35-.82-2.257 0-.949.281-1.727.846-2.332.566-.604 1.326-.907 2.283-.907.923 0 1.664.297 2.225.894.534.58.802 1.329.802 2.244zm-1.449.044c0-.565-.125-1.05-.374-1.454-.294-.49-.711-.734-1.254-.734-.561 0-.988.245-1.281.733-.25.405-.375.898-.375 1.48 0 .565.126 1.05.375 1.455.303.488.724.733 1.268.733.533 0 .952-.248 1.253-.746.259-.412.388-.901.388-1.467zm11.924-3.057l-1.967 6.128h-1.28l-.814-2.661a19.508 19.508 0 01-.506-1.98h-.025c-.121.673-.29 1.332-.505 1.98l-.866 2.66h-1.294l-1.85-6.127h1.436l.71 2.913c.173.689.314 1.346.427 1.967h.026c.104-.512.276-1.165.518-1.954l.893-2.925h1.138l.855 2.863c.206.698.374 1.37.504 2.017h.039c.094-.63.237-1.302.426-2.017l.763-2.863h1.372v-.001zm7.246 6.128h-1.397v-3.51c0-1.082-.422-1.623-1.267-1.623-.414 0-.75.149-1.01.446a1.558 1.558 0 00-.387 1.05v3.635h-1.398v-4.375c0-.539-.017-1.122-.05-1.754h1.228l.065.958h.039a1.99 1.99 0 01.724-.74 2.407 2.407 0 011.267-.344c.586 0 1.074.184 1.462.555.483.454.724 1.13.724 2.03v3.672zm3.852 0h-1.396v-8.94h1.396v8.94zm8.228-3.115c0 .942-.276 1.715-.828 2.32-.578.623-1.346.934-2.302.934-.924 0-1.659-.298-2.206-.896-.546-.596-.82-1.35-.82-2.257 0-.949.282-1.727.847-2.332.566-.604 1.326-.907 2.282-.907.923 0 1.663.297 2.226.894.533.58.801 1.329.801 2.244zm-1.45.044c0-.565-.126-1.05-.375-1.454-.292-.49-.711-.734-1.252-.734-.563 0-.99.245-1.281.733-.25.405-.375.898-.375 1.48 0 .565.125 1.05.375 1.455.302.488.724.733 1.268.733.533 0 .95-.248 1.252-.746.26-.412.388-.901.388-1.467zm8.212 3.071h-1.254l-.104-.706h-.039c-.429.563-1.041.845-1.836.845-.593 0-1.073-.186-1.435-.555-.328-.336-.492-.753-.492-1.248 0-.749.32-1.32.964-1.715.643-.395 1.547-.589 2.711-.58v-.114c0-.807-.435-1.21-1.305-1.21-.62 0-1.167.152-1.639.453l-.284-.894c.584-.352 1.305-.53 2.156-.53 1.643 0 2.467.846 2.467 2.536v2.257c0 .612.03 1.1.09 1.46zm-1.45-2.106v-.945c-1.542-.026-2.312.386-2.312 1.235 0 .32.088.559.268.719a.99.99 0 00.682.239c.307 0 .594-.095.855-.284a1.157 1.157 0 00.507-.964zm9.392 2.106h-1.24l-.066-.984h-.038c-.396.748-1.071 1.123-2.019 1.123-.757 0-1.388-.29-1.888-.87-.5-.58-.749-1.332-.749-2.257 0-.992.271-1.795.815-2.409.526-.572 1.172-.857 1.939-.857.844 0 1.435.276 1.771.832h.027V8.523h1.398v7.289c0 .597.017 1.146.05 1.65zm-1.448-2.585v-1.021c0-.177-.014-.32-.039-.43a1.548 1.548 0 00-.505-.825 1.396 1.396 0 00-.935-.334c-.521 0-.929.201-1.229.606-.297.404-.448.92-.448 1.55 0 .607.143 1.098.429 1.476.303.403.711.605 1.222.605.458 0 .825-.168 1.104-.505.269-.31.401-.685.401-1.122zm13.397-.53c0 .942-.276 1.715-.828 2.32-.579.623-1.344.934-2.303.934-.921 0-1.656-.298-2.205-.896-.547-.596-.82-1.35-.82-2.257 0-.949.281-1.727.846-2.332.566-.604 1.326-.907 2.284-.907.922 0 1.664.297 2.224.894.534.58.802 1.329.802 2.244zm-1.448.044c0-.565-.126-1.05-.375-1.454-.295-.49-.711-.734-1.255-.734-.56 0-.986.245-1.281.733-.251.405-.375.898-.375 1.48 0 .565.126 1.05.375 1.455.303.488.724.733 1.268.733.533 0 .953-.248 1.255-.746.257-.412.388-.901.388-1.467zm8.96 3.071h-1.396v-3.51c0-1.082-.421-1.623-1.268-1.623-.415 0-.749.149-1.008.446a1.55 1.55 0 00-.388 1.05v3.635h-1.399v-4.375c0-.539-.016-1.122-.049-1.754h1.227l.065.958h.039a2.01 2.01 0 01.724-.74 2.41 2.41 0 011.268-.344c.585 0 1.073.184 1.461.555.484.454.724 1.13.724 2.03v3.672zm9.406-5.108h-1.539v2.977c0 .757.274 1.135.815 1.135.251 0 .459-.02.623-.064l.036 1.034c-.276.101-.639.152-1.086.152-.552 0-.981-.164-1.292-.491-.312-.328-.466-.88-.466-1.653v-3.09h-.919v-1.02h.919V10.21l1.369-.403v1.525h1.539v1.022h.001zm7.396 5.108h-1.398v-3.484c0-1.099-.422-1.649-1.266-1.649-.648 0-1.09.319-1.333.956a1.684 1.684 0 00-.065.49v3.686h-1.396v-8.94h1.396v3.694h.026c.44-.672 1.071-1.007 1.888-1.007.579 0 1.058.184 1.438.555.473.461.71 1.148.71 2.055v3.644zm7.63-3.354c0 .244-.019.45-.052.617h-4.191c.019.606.219 1.067.607 1.387.354.286.812.43 1.372.43a4.73 4.73 0 001.694-.29l.219.946c-.596.252-1.297.378-2.109.378-.974 0-1.74-.28-2.295-.838-.557-.56-.833-1.31-.833-2.25 0-.925.257-1.695.776-2.308.541-.655 1.273-.983 2.197-.983.904 0 1.591.328 2.055.983.374.52.56 1.163.56 1.928zm-1.334-.353a1.798 1.798 0 00-.27-1.046c-.243-.378-.612-.568-1.112-.568-.456 0-.828.184-1.112.555a2.03 2.03 0 00-.415 1.06h2.909z" fill="#fff"/></svg>