<svg width="143" height="151" fill="none" xmlns="http://www.w3.org/2000/svg"><g clip-path="url(#clip0_760_2737)" fill-rule="evenodd" clip-rule="evenodd" fill="#CFA029"><path d="M108.676 93.194a8.659 8.659 0 008.403 6.553 8.666 8.666 0 008.403-6.553h6.978c-2.785 5.68-8.627 9.59-15.38 9.59a17.058 17.058 0 01-11.892-4.804 17.121 17.121 0 01-23.785 0 17.12 17.12 0 01-23.784 0 17.12 17.12 0 01-23.785 0 17.063 17.063 0 01-11.894 4.806c-6.754 0-12.595-3.91-15.38-9.59h6.977a8.664 8.664 0 0016.806 0h6.979a8.664 8.664 0 0016.805 0h6.98a8.664 8.664 0 0016.805 0h6.979a8.664 8.664 0 0016.806 0l6.979-.002zM51.382 19.16a18.422 18.422 0 00-14.114-6.56c-6.61 0-12.41 3.475-15.671 8.7a62.07 62.07 0 014.355.107 13.65 13.65 0 0123.359 1.202 22.462 22.462 0 012.071-3.45zm-.627 5.627c2.997-7.411 10.26-12.641 18.746-12.641a20.168 20.168 0 0115.393 7.115 20.53 20.53 0 00-2.163 3.933 14.943 14.943 0 00-26.871.843c-1.72.1-3.428.352-5.105.75zm66.66-3.468c-3.26-5.234-9.065-8.72-15.684-8.72-7.756 0-14.393 4.784-17.128 11.56 1.389.15 2.765.4 4.118.746 1.75-5.518 6.912-9.517 13.01-9.517a13.634 13.634 0 0111.329 6.042 62.689 62.689 0 014.355-.111zm5.633 5.524c-8.187-1.008-16.882-.007-23.901 3.078a29.568 29.568 0 00-3.469-2.252c13.846-6.133 32.766-5.253 45.317 1.262l-1.835 3.179a20.223 20.223 0 00-10.159-2.721c-11.219 0-20.313 9.094-20.313 20.316V86.95h-6.973V49.705c0-11.22-9.095-20.317-20.317-20.317a20.344 20.344 0 00-5.69.81 29.53 29.53 0 00-3.584-2.393 27.223 27.223 0 019.274-1.618c10.22 0 19.126 5.618 23.803 13.933 3.744-6.647 10.191-11.571 17.85-13.276h-.003zm-38.157 22.89c0-6.305 2.569-11.298 6.68-15.016a18.028 18.028 0 00-4.055-2.063c-2.489 2.067-4.598 4.5-6.203 7.314-4.699-8.228-13.56-13.778-23.716-13.778a27.239 27.239 0 00-9.185 1.586 35.238 35.238 0 013.558 2.405 20.306 20.306 0 015.627-.79c11.219 0 20.314 9.094 20.314 20.316v37.245h6.978l.002-37.219zM54.109 86.949V49.706c0-17.727-20.292-25.09-38.16-22.89 7.665 1.709 14.113 6.636 17.855 13.291a27.412 27.412 0 016.381-7.637 26.446 26.446 0 013.74 2.215 20.243 20.243 0 00-6.62 15.02V86.95h-6.98V49.676c0-11.22-9.115-20.314-20.332-20.314A20.226 20.226 0 00-.165 32.084L-2 28.904c18.087-9.394 49.395-7.074 59.695 11.05a27.422 27.422 0 016.056-7.286 18.05 18.05 0 013.972 2.019 20.26 20.26 0 00-6.635 15.018V86.95h-6.979zm40.693-75.248C88.71 4.542 79.636 0 69.5 0S50.29 4.542 44.2 11.701a20.5 20.5 0 013.524 1.654C52.9 7.085 60.733 3.085 69.5 3.085s16.601 4 21.776 10.27c1.12-.662 2.3-1.216 3.525-1.654zM51.188 122.43c2.979 0 5.672 1.385 7.603 3.722 1.876 2.27 3.034 5.443 3.034 9.108 0 3.665-1.158 6.836-3.034 9.108-1.931 2.337-4.624 3.722-7.603 3.722-2.98 0-5.672-1.385-7.604-3.722-1.876-2.27-3.033-5.439-3.033-9.108 0-3.668 1.157-6.835 3.033-9.108 1.932-2.337 4.624-3.722 7.603-3.722zm10.483 2.348a14.82 14.82 0 00-18.719-1.844 14.824 14.824 0 1023.06 12.326 14.776 14.776 0 00-4.34-10.482z"/><path d="M36.147 123.192c-3.214-2.131-7.345-2.822-10.162-2.822-2.928 0-5.8.696-8.278 2.026-2.479 1.329-4.557 3.285-5.916 5.816-1.07 2-1.69 4.36-1.69 7.051 0 2.69.62 5.05 1.69 7.05 1.357 2.531 3.441 4.493 5.916 5.817 2.474 1.323 5.35 2.025 8.278 2.025 2.737 0 6.894-1.012 10.19-2.785a19.24 19.24 0 01-1.835-2.713c-2.762 2.377-5.845 3.486-8.75 3.486a10.948 10.948 0 01-4.345-.887 10.723 10.723 0 01-3.62-2.57c-2.043-2.207-3.339-5.407-3.339-9.418 0-4.01 1.296-7.21 3.338-9.417a10.73 10.73 0 013.62-2.571 10.93 10.93 0 014.346-.886c2.904 0 5.988 1.108 8.75 3.486a19.316 19.316 0 011.805-2.677m90.038 4.075v22.09h2.716v-28.216h-2.637l-20.042 22.587v-22.587h-2.716v28.216h2.638l20.041-22.587v.497zm-32.676-6.126v12.07c0 2.604-1.096 5.04-2.843 6.87-1.761 1.845-4.184 3.075-6.81 3.245-.252.016-.496.024-.73.024-2.307 0-4.276-.728-5.71-2.05-1.432-1.323-2.325-3.235-2.478-5.604a11.457 11.457 0 01-.024-.737v-13.818h-4.084v12.014c0 .403.018.801.043 1.191.253 3.886 1.563 6.655 3.63 8.443 2.068 1.787 4.904 2.601 8.192 2.572.369-.003.749-.017 1.14-.042 1.772-.123 3.5-.607 5.078-1.423a14.111 14.111 0 004.265-3.354l.333-.388v9.203h2.716v-28.215l-2.718-.001z"/></g><defs><clipPath id="clip0_760_2737"><path fill="#fff" d="M0 0h143v150.15H0z"/></clipPath></defs></svg>