<svg width="32" height="32" fill="none" xmlns="http://www.w3.org/2000/svg"><path d="M22.787 6.08a23.57 23.57 0 00-3.2-3.8c-.467-.453-1.254-.027-1.12.613.253 1.254.52 2.907.52 4.387 0 2.747-1.8 4.973-4.547 4.973-2.053 0-3.733-1.24-4.467-3.013a3.326 3.326 0 01-.266-.72c-.147-.56-.88-.733-1.2-.24-.24.36-.467.72-.68 1.107a18.362 18.362 0 00-2.494 9.28c0 5.893 4.774 10.666 10.667 10.666s10.667-4.773 10.667-10.666c0-4.654-1.44-8.974-3.88-12.587zm-7.174 19.253c-2.373 0-4.293-1.866-4.293-4.186 0-2.16 1.4-3.68 3.747-4.16 1.96-.4 3.973-1.24 5.373-2.56.373-.347.987-.187 1.093.306.307 1.36.467 2.774.467 4.2.013 3.534-2.853 6.4-6.387 6.4z" fill="#fff"/></svg>