<svg width="32" height="32" fill="none" xmlns="http://www.w3.org/2000/svg"><path d="M7.57 5.865l-.552-.552a1.407 1.407 0 00-1.983 0l-.014.014a1.394 1.394 0 000 1.983l.552.553a1.395 1.395 0 001.984 0l.014-.015a1.394 1.394 0 000-1.983zm-4.306 9.01H1.82c-.779 0-1.402.623-1.402 1.402v.015c0 .779.623 1.402 1.402 1.402h1.43a1.38 1.38 0 001.417-1.388v-.014a1.4 1.4 0 00-1.403-1.417zM16.014.779H16a1.4 1.4 0 00-1.417 1.403v1.36c0 .779.624 1.402 1.403 1.402H16a1.38 1.38 0 001.417-1.388V2.182c0-.78-.624-1.403-1.403-1.403zM26.98 5.327a1.424 1.424 0 00-1.997-.014l-.553.552a1.394 1.394 0 000 1.983l.014.015a1.394 1.394 0 001.984 0l.552-.553a1.394 1.394 0 000-1.983zm-2.564 21.391l.553.553a1.41 1.41 0 001.997 0 1.41 1.41 0 000-1.998l-.552-.552a1.407 1.407 0 00-1.984 0 1.398 1.398 0 00-.014 1.997zm2.918-10.44v.014c0 .779.624 1.402 1.403 1.402h1.43c.78 0 1.403-.623 1.403-1.402v-.015c0-.779-.623-1.402-1.402-1.402h-1.431c-.78 0-1.403.623-1.403 1.402zM16 7.791c-4.69 0-8.5 3.81-8.5 8.5 0 4.689 3.81 8.5 8.5 8.5 4.69 0 8.5-3.811 8.5-8.5 0-4.69-3.81-8.5-8.5-8.5zm-.014 24.012H16c.78 0 1.402-.623 1.402-1.402v-1.36c0-.78-.623-1.403-1.402-1.403h-.014c-.78 0-1.403.623-1.403 1.403v1.36c0 .779.624 1.402 1.403 1.402zM5.02 27.257a1.41 1.41 0 001.997 0l.553-.553a1.407 1.407 0 000-1.983l-.014-.014a1.41 1.41 0 00-1.998 0l-.552.552a1.424 1.424 0 00.014 1.998z" fill="#fff"/></svg>