<svg width="42" height="46" fill="none" xmlns="http://www.w3.org/2000/svg"><path d="M36.75 5H34.5V2.75A2.257 2.257 0 0032.25.5 2.257 2.257 0 0030 2.75V5H12V2.75A2.257 2.257 0 009.75.5 2.257 2.257 0 007.5 2.75V5H5.25C2.752 5 .772 7.025.772 9.5L.75 41c0 2.475 2.002 4.5 4.5 4.5h31.5c2.475 0 4.5-2.025 4.5-4.5V9.5c0-2.475-2.025-4.5-4.5-4.5zm0 33.75A2.257 2.257 0 0134.5 41h-27a2.257 2.257 0 01-2.25-2.25v-22.5h31.5v22.5zm-27-18h4.5v4.5h-4.5v-4.5zm9 0h4.5v4.5h-4.5v-4.5zm9 0h4.5v4.5h-4.5v-4.5z" fill="#000" fill-opacity=".2"/></svg>