<svg width="203" height="37" fill="none" xmlns="http://www.w3.org/2000/svg"><path d="M20.5 17.805c0 7.078-3.352 10.617-10.055 10.617-6.422 0-9.633-3.404-9.633-10.213V2.793h4.184v14.555c0 4.945 1.922 7.418 5.766 7.418 3.703 0 5.554-2.385 5.554-7.155V2.793H20.5v15.012zM41.998 28H37.92V17.857c0-3.363-1.19-5.044-3.568-5.044-1.243 0-2.268.468-3.077 1.406-.808.926-1.212 2.097-1.212 3.515V28h-4.096V10h4.096v2.988h.07c1.348-2.273 3.293-3.41 5.836-3.41 1.957 0 3.45.639 4.482 1.916 1.031 1.266 1.547 3.1 1.547 5.502V28zm7.049-21.78a2.483 2.483 0 01-1.723-.65c-.468-.433-.703-.984-.703-1.652 0-.668.234-1.225.703-1.67a2.447 2.447 0 011.723-.668c.691 0 1.277.223 1.758.668.48.445.72 1.002.72 1.67 0 .633-.24 1.178-.72 1.635-.48.445-1.067.668-1.758.668zM51.068 28H46.99V10h4.078v18zm21.71 8.28h-4.079V24.905h-.07c-1.23 2.344-3.24 3.516-6.03 3.516-2.214 0-3.995-.803-5.343-2.408-1.336-1.617-2.004-3.815-2.004-6.592 0-2.988.732-5.373 2.197-7.154 1.477-1.793 3.457-2.69 5.942-2.69 2.414 0 4.16.973 5.238 2.918h.07V10h4.078v26.28zm-4.026-16.471v-2.32c0-1.302-.422-2.403-1.266-3.305-.832-.903-1.892-1.354-3.181-1.354-1.512 0-2.707.568-3.586 1.705-.867 1.125-1.301 2.719-1.301 4.781 0 1.829.422 3.264 1.266 4.307.843 1.043 1.933 1.564 3.27 1.564 1.464 0 2.63-.51 3.497-1.529.867-1.02 1.301-2.303 1.301-3.85zm25.98-13.465H87.49V28h-4.183V6.344h-7.225V2.793h18.65v3.55zm10.723 7.54c-.492-.386-1.201-.58-2.127-.58-1.207 0-2.215.546-3.023 1.636-.809 1.09-1.213 2.572-1.213 4.447V28h-4.078V10h4.078v3.709h.07c.398-1.266 1.008-2.25 1.828-2.953.832-.715 1.758-1.072 2.778-1.072.738 0 1.3.11 1.687.334v3.867zm4.94-7.663a2.483 2.483 0 01-1.723-.65c-.469-.434-.703-.985-.703-1.653s.234-1.225.703-1.67a2.446 2.446 0 011.723-.668c.691 0 1.277.223 1.757.668.481.445.721 1.002.721 1.67 0 .633-.24 1.178-.721 1.635-.48.445-1.066.668-1.757.668zM112.416 28h-4.078V10h4.078v18zm9.492-2.654h-.07v10.933h-4.078V10h4.078v3.164h.07c1.395-2.39 3.434-3.586 6.117-3.586 2.286 0 4.067.803 5.344 2.408 1.277 1.606 1.916 3.762 1.916 6.47 0 3-.721 5.401-2.162 7.206-1.441 1.805-3.41 2.707-5.906 2.707-2.297 0-4.067-1.008-5.309-3.023zm-.105-7.102v2.233c0 1.312.416 2.425 1.248 3.34.844.913 1.91 1.37 3.199 1.37 1.512 0 2.695-.585 3.551-1.757.867-1.184 1.301-2.83 1.301-4.94 0-1.77-.405-3.152-1.213-4.148-.797-1.008-1.881-1.512-3.252-1.512-1.453 0-2.625.516-3.516 1.547-.879 1.031-1.318 2.32-1.318 3.867z" fill="#fff"/><path d="M138.748 26.998v-4.307c.387.352.844.668 1.371.95.539.28 1.108.521 1.705.72a14.32 14.32 0 001.793.44 9.575 9.575 0 001.653.158c1.757 0 3.064-.293 3.919-.879.868-.586 1.301-1.435 1.301-2.549 0-.597-.146-1.113-.439-1.547-.281-.445-.68-.85-1.196-1.213a11.924 11.924 0 00-1.828-1.037 84.102 84.102 0 00-2.232-1.054 36.94 36.94 0 01-2.391-1.389 10.742 10.742 0 01-1.933-1.547 6.859 6.859 0 01-1.283-1.934c-.305-.714-.458-1.552-.458-2.513 0-1.184.264-2.21.791-3.076a6.771 6.771 0 012.11-2.162c.879-.575 1.875-.997 2.988-1.266a13.867 13.867 0 013.41-.422c2.637 0 4.559.299 5.766.897v4.13c-1.43-1.03-3.27-1.546-5.52-1.546-.621 0-1.242.058-1.863.175a5.63 5.63 0 00-1.652.58c-.481.27-.873.616-1.178 1.038-.305.421-.457.931-.457 1.529 0 .562.117 1.049.352 1.459.234.41.574.785 1.019 1.125.457.34 1.008.674 1.652 1.002.657.316 1.413.662 2.268 1.037a29.38 29.38 0 012.479 1.441 11.31 11.31 0 012.056 1.67 7.033 7.033 0 011.406 2.04c.352.738.528 1.581.528 2.53 0 1.278-.258 2.356-.774 3.235a6.207 6.207 0 01-2.091 2.144c-.868.551-1.87.95-3.006 1.196a17 17 0 01-3.604.369c-.422 0-.943-.035-1.564-.106a18.7 18.7 0 01-1.881-.28 16.02 16.02 0 01-1.828-.44c-.575-.176-1.037-.375-1.389-.598zm28.301 1.424c-2.778 0-4.998-.838-6.662-2.514-1.653-1.687-2.479-3.92-2.479-6.697 0-3.023.862-5.385 2.584-7.084 1.735-1.7 4.067-2.549 6.996-2.549 2.813 0 5.004.826 6.574 2.479 1.571 1.652 2.356 3.943 2.356 6.873 0 2.87-.85 5.174-2.549 6.908-1.687 1.723-3.961 2.584-6.82 2.584zm.193-15.592c-1.594 0-2.853.557-3.779 1.67-.926 1.113-1.389 2.648-1.389 4.605 0 1.887.469 3.375 1.406 4.465.938 1.078 2.192 1.617 3.762 1.617 1.606 0 2.836-.533 3.692-1.6.867-1.066 1.3-2.583 1.3-4.552 0-1.98-.433-3.51-1.3-4.588-.856-1.078-2.086-1.617-3.692-1.617zm22.922-8.156c-.551-.317-1.178-.475-1.881-.475-1.98 0-2.971 1.12-2.971 3.358V10h4.184v3.2h-4.166V28h-4.078V13.2h-3.076V10h3.076V7.082c0-1.898.621-3.393 1.863-4.482 1.242-1.102 2.795-1.653 4.658-1.653 1.008 0 1.805.112 2.391.334v3.393zm12.393 23.133c-.797.398-1.846.597-3.147.597-3.492 0-5.238-1.675-5.238-5.027V13.199h-3.006V10h3.006V5.834l4.078-1.16V10h4.307v3.2h-4.307v9c0 1.066.193 1.827.58 2.284.387.457 1.031.686 1.934.686.691 0 1.289-.2 1.793-.598v3.235z" fill="#EB652C"/></svg>