<svg width="212" height="36" fill="none" xmlns="http://www.w3.org/2000/svg"><path d="M14.418 2.406h5.256v16.91c0 1.97-.422 3.627-1.266 4.975-.832 1.348-1.986 2.361-3.463 3.041-1.465.68-3.152 1.02-5.062 1.02-1.91 0-3.61-.34-5.098-1.02-1.476-.68-2.637-1.693-3.48-3.041C.473 22.943.057 21.285.057 19.316V2.406H5.33v16.91c0 1.149.182 2.086.545 2.813.363.726.885 1.26 1.564 1.6.692.34 1.506.51 2.444.51.96 0 1.775-.17 2.443-.51.68-.34 1.195-.873 1.547-1.6.363-.727.545-1.664.545-2.813V2.406zm14.238 10.635V28h-5.062V8.98h4.746l.316 4.061zm-.738 4.781h-1.371c0-1.406.181-2.672.545-3.797.363-1.136.873-2.103 1.53-2.9a6.569 6.569 0 012.337-1.846c.914-.433 1.934-.65 3.059-.65.89 0 1.705.129 2.443.387a4.676 4.676 0 011.898 1.23c.54.563.95 1.307 1.23 2.232.294.926.44 2.057.44 3.393V28h-5.097V15.854c0-.844-.117-1.5-.352-1.97a1.974 1.974 0 00-1.037-.984c-.445-.199-.996-.298-1.652-.298-.68 0-1.272.134-1.776.404-.492.27-.902.644-1.23 1.125a5.307 5.307 0 00-.72 1.652 8.101 8.101 0 00-.247 2.04zM49.223 8.98V28h-5.08V8.98h5.08zm-5.397-4.957c0-.738.258-1.347.774-1.828.515-.48 1.207-.72 2.074-.72.855 0 1.54.24 2.056.72.528.48.792 1.09.792 1.828 0 .739-.264 1.348-.791 1.829-.516.48-1.202.72-2.057.72-.867 0-1.559-.24-2.074-.72-.516-.48-.774-1.09-.774-1.829zm20.813 31.29V12.864l.65-3.885h4.447v26.332H64.64zm-12.024-16.63v-.369c0-1.453.158-2.771.475-3.955.328-1.195.808-2.214 1.441-3.058a6.445 6.445 0 012.32-1.969c.926-.469 1.993-.703 3.2-.703 1.16 0 2.162.234 3.006.703.843.469 1.552 1.13 2.127 1.986.585.856 1.054 1.864 1.406 3.024.351 1.16.62 2.431.808 3.814v.809a21.333 21.333 0 01-.808 3.691c-.352 1.137-.82 2.133-1.406 2.989a6.248 6.248 0 01-2.145 2.003c-.844.47-1.852.704-3.023.704-1.184 0-2.239-.24-3.164-.721a6.894 6.894 0 01-2.32-2.04c-.634-.866-1.114-1.886-1.442-3.058-.317-1.183-.475-2.467-.475-3.85zm5.063-.369v.37c0 .785.064 1.523.193 2.214.129.68.334 1.284.615 1.811.293.527.668.943 1.125 1.248.457.293 1.02.44 1.688.44.926 0 1.67-.2 2.232-.598.575-.41.996-.967 1.266-1.67.281-.703.445-1.506.492-2.408v-2.303a8.966 8.966 0 00-.299-1.986c-.152-.598-.386-1.108-.703-1.53a2.94 2.94 0 00-1.195-.966c-.48-.235-1.067-.352-1.758-.352-.656 0-1.219.146-1.688.44-.468.292-.85.703-1.142 1.23-.281.516-.492 1.119-.633 1.81a12.288 12.288 0 00-.193 2.25zM85.486 2.406V28h-5.255V2.406h5.255zm7.875 0v4.131H72.478v-4.13h20.883zm6.522 10.723V28H94.82V8.98h4.764l.299 4.149zm5.73-4.272l-.088 4.694a12.197 12.197 0 00-.896-.088 9.1 9.1 0 00-.932-.053c-.715 0-1.336.094-1.863.281-.516.176-.949.44-1.301.791a3.45 3.45 0 00-.773 1.284 6.306 6.306 0 00-.282 1.722l-1.019-.316c0-1.23.123-2.362.37-3.393.245-1.043.603-1.95 1.071-2.724.481-.774 1.067-1.371 1.758-1.793.692-.422 1.483-.633 2.373-.633.281 0 .569.023.862.07.293.035.533.088.72.158zm7.735.123V28h-5.08V8.98h5.08zm-5.397-4.957c0-.738.258-1.347.774-1.828.515-.48 1.207-.72 2.074-.72.855 0 1.541.24 2.056.72.528.48.791 1.09.791 1.828 0 .739-.263 1.348-.791 1.829-.515.48-1.201.72-2.056.72-.867 0-1.559-.24-2.074-.72-.516-.48-.774-1.09-.774-1.829zm14.643 8.614v22.675h-5.063V8.98h4.694l.369 3.657zm12.041 5.642v.37c0 1.382-.164 2.665-.492 3.849-.317 1.184-.786 2.215-1.407 3.094a6.674 6.674 0 01-2.32 2.039c-.914.48-1.969.72-3.164.72-1.16 0-2.168-.234-3.023-.703a6.296 6.296 0 01-2.163-1.968c-.574-.856-1.037-1.846-1.388-2.971a23.455 23.455 0 01-.809-3.621v-.967c.188-1.383.457-2.648.809-3.797.351-1.16.814-2.162 1.388-3.006.586-.855 1.301-1.517 2.145-1.986.855-.469 1.857-.703 3.006-.703 1.207 0 2.267.228 3.181.685a6.255 6.255 0 012.321 1.97c.633.855 1.107 1.874 1.424 3.058.328 1.183.492 2.496.492 3.937zm-5.08.37v-.37c0-.808-.071-1.552-.211-2.232-.129-.692-.34-1.295-.633-1.81a3.074 3.074 0 00-1.125-1.196c-.457-.293-1.014-.44-1.67-.44-.691 0-1.283.112-1.775.334a2.965 2.965 0 00-1.178.967 4.487 4.487 0 00-.686 1.512 9.779 9.779 0 00-.281 1.986v2.444c.059.867.223 1.646.492 2.338.27.68.686 1.218 1.248 1.617.563.398 1.301.598 2.215.598.668 0 1.231-.147 1.688-.44.457-.305.826-.72 1.107-1.248a5.692 5.692 0 00.615-1.828c.129-.692.194-1.436.194-2.233z" fill="#00BED6"/><path d="M160.387 21.303a3.4 3.4 0 00-.211-1.23c-.129-.376-.375-.716-.738-1.02-.364-.317-.874-.627-1.53-.932-.656-.305-1.506-.621-2.549-.95a32.252 32.252 0 01-3.304-1.265 13.565 13.565 0 01-2.743-1.635 7.368 7.368 0 01-1.863-2.197c-.445-.832-.668-1.799-.668-2.9 0-1.067.235-2.033.703-2.9a6.676 6.676 0 011.969-2.25c.844-.633 1.84-1.12 2.988-1.46 1.161-.34 2.432-.51 3.815-.51 1.887 0 3.533.34 4.939 1.02 1.407.68 2.496 1.612 3.27 2.795.785 1.184 1.178 2.537 1.178 4.06h-5.239c0-.75-.158-1.406-.474-1.968-.305-.574-.774-1.025-1.407-1.354-.621-.328-1.406-.492-2.355-.492-.914 0-1.676.14-2.285.422-.61.27-1.067.639-1.371 1.108a2.723 2.723 0 00-.457 1.546c0 .434.105.827.316 1.178.223.352.551.68.984.985.434.304.967.591 1.6.86.633.27 1.365.534 2.197.792 1.395.422 2.619.896 3.674 1.424 1.067.527 1.957 1.119 2.672 1.775a6.595 6.595 0 011.617 2.233c.364.832.545 1.775.545 2.83 0 1.113-.217 2.109-.65 2.988a6.146 6.146 0 01-1.881 2.232c-.82.61-1.799 1.073-2.936 1.389-1.136.316-2.408.475-3.814.475-1.266 0-2.514-.165-3.744-.493-1.231-.34-2.35-.85-3.358-1.529a7.7 7.7 0 01-2.39-2.601c-.598-1.055-.897-2.303-.897-3.745h5.291c0 .797.123 1.471.369 2.022.246.55.592.996 1.038 1.336.457.34.996.586 1.617.738a8.858 8.858 0 002.074.229c.914 0 1.664-.13 2.25-.387.598-.258 1.037-.615 1.318-1.072.293-.457.44-.973.44-1.547zm7.734-2.62v-.369c0-1.394.199-2.677.598-3.85.398-1.183.978-2.208 1.74-3.075a7.8 7.8 0 012.812-2.022c1.114-.492 2.391-.738 3.833-.738 1.441 0 2.724.246 3.849.738 1.125.48 2.068 1.154 2.83 2.022.774.867 1.36 1.892 1.758 3.076.398 1.172.598 2.455.598 3.85v.369c0 1.382-.2 2.666-.598 3.85a8.955 8.955 0 01-1.758 3.075 7.801 7.801 0 01-2.812 2.022c-1.114.48-2.391.72-3.832.72-1.442 0-2.725-.24-3.85-.72a7.965 7.965 0 01-2.83-2.022 9.114 9.114 0 01-1.74-3.076c-.399-1.183-.598-2.467-.598-3.85zm5.063-.369v.37c0 .796.07 1.54.211 2.232.14.691.363 1.3.667 1.828.317.516.727.92 1.231 1.213.504.293 1.119.44 1.846.44.703 0 1.306-.147 1.81-.44a3.344 3.344 0 001.213-1.213 6.034 6.034 0 00.668-1.828c.152-.691.229-1.436.229-2.232v-.37c0-.773-.077-1.5-.229-2.18a5.773 5.773 0 00-.685-1.827 3.407 3.407 0 00-1.213-1.266c-.504-.305-1.114-.457-1.828-.457-.715 0-1.325.152-1.829.457a3.604 3.604 0 00-1.213 1.266 6.035 6.035 0 00-.667 1.828c-.141.68-.211 1.406-.211 2.18zM195.701 28h-5.097V7.293c0-1.441.281-2.654.843-3.639a5.516 5.516 0 012.408-2.25c1.043-.515 2.28-.773 3.709-.773.469 0 .92.035 1.354.105.434.059.855.135 1.266.229l-.053 3.814a4.405 4.405 0 00-.703-.123 9.214 9.214 0 00-.862-.035c-.609 0-1.13.106-1.564.316a2.12 2.12 0 00-.967.897c-.223.398-.334.885-.334 1.459V28zm3.797-19.02v3.586h-11.725V8.98h11.725zm11.971 0v3.586h-11.074V8.98h11.074zm-8.332-4.693h5.062V22.27c0 .55.071.972.211 1.265.152.293.375.498.668.615.293.106.662.159 1.108.159.316 0 .597-.012.843-.036.258-.035.475-.07.651-.105l.017 3.727c-.433.14-.902.252-1.406.334a10.44 10.44 0 01-1.67.123c-1.113 0-2.086-.182-2.918-.545-.82-.375-1.453-.973-1.898-1.793-.446-.82-.668-1.899-.668-3.235V4.287z" fill="#EB652C"/></svg>