<svg width="16" height="16" fill="none" xmlns="http://www.w3.org/2000/svg"><path d="M14.328 14.557a.5.5 0 00.707-.707l-.707.707zM10.92 9.735a.5.5 0 10-.707.707l.707-.707zm4.115 4.115L10.92 9.735l-.707.707 4.115 4.115.707-.707z" fill="#727272"/><path d="M2.405 5.699a4.66 4.66 0 013.296-3.295v0a4.66 4.66 0 014.5 1.206v0a4.66 4.66 0 011.207 4.5v0a4.66 4.66 0 01-3.295 3.296v0A4.66 4.66 0 013.612 10.2v0a4.66 4.66 0 01-1.207-4.501v0z" stroke="#727272" stroke-width="1.009" stroke-linecap="round" stroke-linejoin="round"/></svg>